<svg xmlns="http://www.w3.org/2000/svg" xmlns:xlink="http://www.w3.org/1999/xlink" viewBox="0 0 500 500" width="500" height="500" preserveAspectRatio="xMidYMid meet" style="width: 100%; height: 100%; transform: translate3d(0px, 0px, 0px); content-visibility: visible;"><defs><clipPath id="__lottie_element_12190"><rect width="500" height="500" x="0" y="0"/></clipPath><g id="__lottie_element_12204"><g transform="matrix(1,0.000002614406639622757,-0.000002614406639622757,1,6.00067138671875,-6.50054931640625)" opacity="1" style="display: block;"><g opacity="1" transform="matrix(1,0,0,1,0,0)"><g opacity="1" transform="matrix(1,0,0,1,118.61900329589844,194.18499755859375)"><path fill="rgb(235,230,239)" fill-opacity="1" d=" M81.8010025024414,61.85499954223633 C81.8010025024414,61.85499954223633 44.6609992980957,33.775001525878906 44.6609992980957,33.775001525878906 M-33.77299880981445,44.66600036621094 C-9.104999542236328,63.31800079345703 26.013999938964844,58.441001892089844 44.66600036621094,33.77299880981445 C63.31800079345703,9.104999542236328 58.441001892089844,-26.013999938964844 33.77299880981445,-44.66600036621094 C9.104999542236328,-63.31800079345703 -26.013999938964844,-58.441001892089844 -44.66600036621094,-33.77299880981445 C-63.31800079345703,-9.104999542236328 -58.441001892089844,26.013999938964844 -33.77299880981445,44.66600036621094z"/></g><g opacity="1" transform="matrix(1,0,0,1,105.7760009765625,196.18499755859375)"><path fill="rgb(242,76,0)" fill-opacity="1" d=" M12.843999862670898,-15.64799976348877 C16.243000030517578,-21.809999465942383 23.117000579833984,-25.52199935913086 29.951000213623047,-22.610000610351562 C29.951000213623047,-22.610000610351562 39.1879997253418,-19.485000610351562 38.49399948120117,-8.550000190734863 C37.79999923706055,2.384999990463257 23.836999893188477,17.707000732421875 12.843999862670898,23.6200008392334 M12.843999862670898,-15.64799976348877 C9.444999694824219,-21.809999465942383 2.569999933242798,-25.52199935913086 -4.263999938964844,-22.610000610351562 C-4.263999938964844,-22.610000610351562 -13.50100040435791,-19.485000610351562 -12.807000160217285,-8.550000190734863 C-12.11299991607666,2.384999990463257 1.8509999513626099,17.707000732421875 12.843999862670898,23.6200008392334"/></g></g><g opacity="0" transform="matrix(1,0,0,1,0,0)"><g opacity="1" transform="matrix(1,0,0,1,118.61900329589844,194.18499755859375)"><path fill="rgb(235,230,239)" fill-opacity="1" d=" M-44.11899948120117,-33.38100051879883 C-44.11899948120117,-33.38100051879883 -44.191001892089844,-33.435001373291016 -44.191001892089844,-33.435001373291016 M-44.340999603271484,-33.41400146484375 C-44.29399871826172,-33.37799835205078 -44.22700119018555,-33.38800048828125 -44.191001892089844,-33.435001373291016 C-44.154998779296875,-33.481998443603516 -44.165000915527344,-33.54999923706055 -44.21200180053711,-33.58599853515625 C-44.25899887084961,-33.62200164794922 -44.32600021362305,-33.61199951171875 -44.36199951171875,-33.564998626708984 C-44.39799880981445,-33.518001556396484 -44.38800048828125,-33.45000076293945 -44.340999603271484,-33.41400146484375z"/></g><g opacity="1" transform="matrix(1,0,0,1,105.7760009765625,196.18499755859375)"><path fill="rgb(242,76,0)" fill-opacity="1" d=" M-31.433000564575195,-35.5260009765625 C-31.426000595092773,-35.53799819946289 -31.413000106811523,-35.54600143432617 -31.399999618530273,-35.540000915527344 C-31.399999618530273,-35.540000915527344 -31.381999969482422,-35.534000396728516 -31.382999420166016,-35.51300048828125 C-31.384000778198242,-35.492000579833984 -31.41200065612793,-35.46200180053711 -31.433000564575195,-35.45100021362305 M-31.433000564575195,-35.5260009765625 C-31.440000534057617,-35.53799819946289 -31.452999114990234,-35.54600143432617 -31.465999603271484,-35.540000915527344 C-31.465999603271484,-35.540000915527344 -31.482999801635742,-35.534000396728516 -31.48200035095215,-35.51300048828125 C-31.481000900268555,-35.492000579833984 -31.45400047302246,-35.46200180053711 -31.433000564575195,-35.45100021362305"/></g></g></g></g><g id="__lottie_element_12216"><g transform="matrix(1,0,0,1,6.500152587890625,-6.500152587890625)" opacity="1" style="display: block;"><g opacity="1" transform="matrix(1,0,0,1,0,0)"><g opacity="1" transform="matrix(1,0,0,1,250,118.10600280761719)"><path fill="rgb(235,230,239)" fill-opacity="1" d=" M0,140.25399780273438 C0,140.25399780273438 0,56.0040168762207 0,56.0040168762207 M55.9999885559082,0.000030040711862966418 C55.9999885559082,30.928024291992188 30.927993774414062,56.00001907348633 0,56.00001907348633 C-30.927993774414062,56.00001907348633 -55.9999885559082,30.928024291992188 -55.9999885559082,0.000030040711862966418 C-55.9999885559082,-30.927963256835938 -30.927993774414062,-55.99995803833008 0,-55.99995803833008 C30.927993774414062,-55.99995803833008 55.9999885559082,-30.927963256835938 55.9999885559082,0.000030040711862966418z"/></g><g opacity="1" transform="matrix(1,0,0,1,0,0)"><g opacity="1" transform="matrix(1,0,0,1,265.29901123046875,101.08799743652344)"><path fill="rgb(75,179,253)" fill-opacity="1" d=" M0.7469965219497681,40.537025451660156 C0.7469965219497681,40.537025451660156 -31.343996047973633,40.537025451660156 -31.343996047973633,40.537025451660156 C-31.343996047973633,40.537025451660156 -42.51399230957031,9.601031303405762 -42.51399230957031,9.601031303405762 C-42.51399230957031,9.601031303405762 11.915993690490723,9.601031303405762 11.915993690490723,9.601031303405762 C11.915993690490723,9.601031303405762 0.7469965219497681,40.537025451660156 0.7469965219497681,40.537025451660156z M-35.74899673461914,9.601031303405762 C-35.74899673461914,9.601031303405762 -25.444997787475586,-9.600964546203613 -25.444997787475586,-9.600964546203613 M5.151995658874512,9.601031303405762 C5.151995658874512,9.601031303405762 -5.152002334594727,-9.600964546203613 -5.152002334594727,-9.600964546203613"/></g></g></g><g opacity="1" transform="matrix(1,0,0,1,0,0)"><g opacity="1" transform="matrix(1,0,0,1,250,118.10600280761719)"><path fill="rgb(235,230,239)" fill-opacity="1" d=" M0.1329999715089798,-56.139957427978516 C0.1329999715089798,-56.139957427978516 0.1329999715089798,-56.3399772644043 0.1329999715089798,-56.3399772644043 M0.2660119831562042,-56.47298812866211 C0.2660119831562042,-56.39998245239258 0.20600661635398865,-56.3399772644043 0.1329999715089798,-56.3399772644043 C0.059993334114551544,-56.3399772644043 -0.000012048385542584583,-56.39998245239258 -0.000012048385542584583,-56.47298812866211 C-0.000012048385542584583,-56.54599380493164 0.059993334114551544,-56.60599899291992 0.1329999715089798,-56.60599899291992 C0.20600661635398865,-56.60599899291992 0.2660119831562042,-56.54599380493164 0.2660119831562042,-56.47298812866211z"/></g><g opacity="1" transform="matrix(1,0,0,1,0,0)"><g opacity="1" transform="matrix(1,0,0,1,265.29901123046875,101.08799743652344)"><path fill="rgb(75,179,253)" fill-opacity="1" d=" M-15.127996444702148,-39.398983001708984 C-15.127996444702148,-39.398983001708984 -15.20400333404541,-39.398983001708984 -15.20400333404541,-39.398983001708984 C-15.20400333404541,-39.398983001708984 -15.230006217956543,-39.47298812866211 -15.230006217956543,-39.47298812866211 C-15.230006217956543,-39.47298812866211 -15.100994110107422,-39.47298812866211 -15.100994110107422,-39.47298812866211 C-15.100994110107422,-39.47298812866211 -15.127996444702148,-39.398983001708984 -15.127996444702148,-39.398983001708984z M-15.214004516601562,-39.47298812866211 C-15.214004516601562,-39.47298812866211 -15.19000244140625,-39.51799392700195 -15.19000244140625,-39.51799392700195 M-15.116995811462402,-39.47298812866211 C-15.116995811462402,-39.47298812866211 -15.141998291015625,-39.51799392700195 -15.141998291015625,-39.51799392700195"/></g></g></g></g></g><g id="__lottie_element_12228"><g transform="matrix(0.9999115467071533,-0.013301841914653778,0.013301841914653778,0.9999115467071533,3.0716552734375,-2.5573883056640625)" opacity="1" style="display: block;"><g opacity="1" transform="matrix(1,0,0,1,0,0)"><g opacity="1" transform="matrix(1,0,0,1,381.1579895019531,195.9669952392578)"><path fill="rgb(235,230,239)" fill-opacity="1" d=" M-45.9789924621582,32.70213317871094 C-45.9789924621582,32.70213317871094 -86.4930419921875,63.73035430908203 -86.4930419921875,63.73035430908203 M33.33627700805664,44.736778259277344 C8.75682258605957,63.32182312011719 -26.236116409301758,58.46233367919922 -44.821163177490234,33.88288116455078 C-63.40620803833008,9.303426742553711 -58.54671859741211,-25.689512252807617 -33.96726608276367,-44.274559020996094 C-9.387812614440918,-62.85960388183594 25.605127334594727,-58.00011444091797 44.1901741027832,-33.42066192626953 C62.77521896362305,-8.841208457946777 57.91572952270508,26.151731491088867 33.33627700805664,44.736778259277344z"/></g><g opacity="1" transform="matrix(1,0,0,1,381.1579895019531,195.9669952392578)"><path fill="rgb(44,165,141)" fill-opacity="1" d=" M-17.630117416381836,-9.328452110290527 C-17.630117416381836,0.2341000884771347 -0.3154933452606201,27.105295181274414 -0.3154933452606201,27.105295181274414 C-0.3154933452606201,27.105295181274414 16.999128341674805,0.2341000884771347 16.999128341674805,-9.328452110290527 C16.999128341674805,-18.89100456237793 9.247058868408203,-26.643077850341797 -0.3154933452606201,-26.643077850341797 C-9.878046035766602,-26.643077850341797 -17.630117416381836,-18.89100456237793 -17.630117416381836,-9.328452110290527z M0.0252767875790596,-9.700114250183105 C0.0252767875790596,-9.700114250183105 0.0252767875790596,-9.949213981628418 0.0252767875790596,-9.949213981628418"/></g></g><g opacity="1" transform="matrix(1,0,0,1,0,0)"><g opacity="1" transform="matrix(1,0,0,1,381.1579895019531,195.9669952392578)"><path fill="rgb(235,230,239)" fill-opacity="1" d=" M45.221473693847656,-32.7152214050293 C45.221473693847656,-32.7152214050293 44.64552307128906,-32.27344512939453 44.64552307128906,-32.27344512939453 M46.34920883178711,-32.54386520385742 C45.99966049194336,-32.27991485595703 45.50160217285156,-32.34842300415039 45.237648010253906,-32.697967529296875 C44.97369384765625,-33.047515869140625 45.04220199584961,-33.54557800292969 45.39175033569336,-33.80952835083008 C45.741294860839844,-34.073482513427734 46.239356994628906,-34.004974365234375 46.50331115722656,-33.65542984008789 C46.76726531982422,-33.30588150024414 46.69875717163086,-32.80781936645508 46.34920883178711,-32.54386520385742z"/></g><g opacity="1" transform="matrix(1,0,0,1,381.1579895019531,195.9669952392578)"><path fill="rgb(44,165,141)" fill-opacity="1" d=" M45.624603271484375,-33.31263732910156 C45.624603271484375,-33.17618942260742 45.870975494384766,-32.79438400268555 45.870975494384766,-32.79438400268555 C45.870975494384766,-32.79438400268555 46.116355895996094,-33.17618942260742 46.116355895996094,-33.31263732910156 C46.116355895996094,-33.4490852355957 46.007423400878906,-33.55901336669922 45.870975494384766,-33.55901336669922 C45.734527587890625,-33.55901336669922 45.624603271484375,-33.4490852355957 45.624603271484375,-33.31263732910156z M45.875205993652344,-33.31797409057617 C45.875205993652344,-33.31797409057617 45.875205993652344,-33.32087707519531 45.875205993652344,-33.32087707519531"/></g></g></g></g><filter id="__lottie_element_12236" filterUnits="objectBoundingBox" x="0%" y="0%" width="100%" height="100%"><feComponentTransfer in="SourceGraphic"><feFuncA type="table" tableValues="1.0 0.0"/></feComponentTransfer></filter><mask id="__lottie_element_12228_2" mask-type="alpha"><g filter="url(#__lottie_element_12236)"><rect width="500" height="500" x="0" y="0" fill="#ffffff" opacity="0"/><use xmlns:ns1="http://www.w3.org/1999/xlink" ns1:href="#__lottie_element_12228"/></g></mask><filter id="__lottie_element_12237" filterUnits="objectBoundingBox" x="0%" y="0%" width="100%" height="100%"><feComponentTransfer in="SourceGraphic"><feFuncA type="table" tableValues="1.0 0.0"/></feComponentTransfer></filter><mask id="__lottie_element_12216_2" mask-type="alpha"><g filter="url(#__lottie_element_12237)"><rect width="500" height="500" x="0" y="0" fill="#ffffff" opacity="0"/><use xmlns:ns2="http://www.w3.org/1999/xlink" ns2:href="#__lottie_element_12216"/></g></mask><filter id="__lottie_element_12238" filterUnits="objectBoundingBox" x="0%" y="0%" width="100%" height="100%"><feComponentTransfer in="SourceGraphic"><feFuncA type="table" tableValues="1.0 0.0"/></feComponentTransfer></filter><mask id="__lottie_element_12204_2" mask-type="alpha"><g filter="url(#__lottie_element_12238)"><rect width="500" height="500" x="0" y="0" fill="#ffffff" opacity="0"/><use xmlns:ns3="http://www.w3.org/1999/xlink" ns3:href="#__lottie_element_12204"/></g></mask></defs><g clip-path="url(#__lottie_element_12190)"><g transform="matrix(1.0139100551605225,0,0,0.9864599704742432,-3.4775390625,2.6916351318359375)" opacity="1" style="display: block;"><g opacity="1" transform="matrix(1,0,0,1,0,0)"><g opacity="1" transform="matrix(1,0,0,1,253.0709991455078,415.82000732421875)"><path fill="rgb(249,201,192)" fill-opacity="1" d=" M26.92300033569336,-20.986000061035156 C26.92300033569336,-20.986000061035156 26.92300033569336,-5.933000087738037 26.92300033569336,-5.933000087738037 C26.92300033569336,8.873000144958496 14.802000045776367,20.986000061035156 -0.004000000189989805,20.986000061035156 C-14.8100004196167,20.986000061035156 -26.92300033569336,8.873000144958496 -26.92300033569336,-5.933000087738037 C-26.92300033569336,-5.933000087738037 -26.92300033569336,-20.97800064086914 -26.92300033569336,-20.97800064086914"/></g><g opacity="1" transform="matrix(1,0,0,1,253.06700134277344,333.6860046386719)"><path fill="rgb(249,201,192)" fill-opacity="1" d=" M-1.5420000553131104,-69.54199981689453 C-1.5420000553131104,-69.54199981689453 1.5420000553131104,-69.54199981689453 1.5420000553131104,-69.54199981689453 C28.351999282836914,-69.54199981689453 49.82099914550781,-47.3129997253418 48.888999938964844,-20.518999099731445 C48.888999938964844,-20.518999099731445 47.34700012207031,23.812999725341797 47.34700012207031,23.812999725341797 C46.459999084472656,49.32099914550781 25.52400016784668,69.54199981689453 0,69.54199981689453 C0,69.54199981689453 0,69.54199981689453 0,69.54199981689453 C-25.52400016784668,69.54199981689453 -46.459999084472656,49.32099914550781 -47.34700012207031,23.812999725341797 C-47.34700012207031,23.812999725341797 -48.888999938964844,-20.518999099731445 -48.888999938964844,-20.518999099731445 C-49.82099914550781,-47.3129997253418 -28.351999282836914,-69.54199981689453 -1.5420000553131104,-69.54199981689453z"/></g><g opacity="1" transform="matrix(1,0,0,1,250,289.3280029296875)"><path fill="rgb(178,104,54)" fill-opacity="1" d=" M-45.37300109863281,36.60100173950195 C-14.314000129699707,35.305999755859375 10.482000350952148,15.984999656677246 22.04599952697754,-11.163999557495117 C48.104000091552734,7.4019999504089355 46.70399856567383,23.663000106811523 51.41699981689453,39.327999114990234 C62.845001220703125,23.714000701904297 60.60499954223633,-7.361000061035156 52.606998443603516,-19.6200008392334 C45.95000076293945,-29.822999954223633 33.79800033569336,-33.13100051879883 33.79800033569336,-33.13100051879883 C16.47800064086914,-37.33000183105469 -1.2369999885559082,-31.110000610351562 -10.020999908447266,-27.16900062561035 C-13.670000076293945,-25.531999588012695 -17.908000946044922,-25.934999465942383 -21.163999557495117,-28.257999420166016 C-21.163999557495117,-28.257999420166016 -33.78300094604492,-37.26300048828125 -33.78300094604492,-37.26300048828125 C-38.49800109863281,-40.78200149536133 -45.1879997253418,-39.68899917602539 -48.53799819946289,-34.85300064086914 C-52.82500076293945,-28.665000915527344 -57.05799865722656,-19.398000717163086 -58.724998474121094,-8.295000076293945 C-62.64699935913086,17.83300018310547 -45.28900146484375,36.512001037597656 -45.28900146484375,36.512001037597656"/></g></g><g opacity="1" transform="matrix(1,0,0,1,253.0709991455078,405.09100341796875)" style="mix-blend-mode: multiply;"><path fill="rgb(249,201,192)" fill-opacity="1" d=" M26.92300033569336,-10.255999565124512 C26.92300033569336,-10.255999565124512 16.194000244140625,6.988999843597412 -11.019000053405762,7.9670000076293945 C-16.073999404907227,8.149999618530273 -21.24799919128418,8.960000038146973 -26.357999801635742,10.255999565124512 C-26.43000030517578,9.913999557495117 -26.500999450683594,9.5649995803833 -26.55699920654297,9.21500015258789 C-26.58099937438965,9.064000129699707 -26.604000091552734,8.904999732971191 -26.628000259399414,8.746000289916992 C-26.667999267578125,8.508000373840332 -26.700000762939453,8.269000053405762 -26.724000930786133,8.02299976348877 C-26.85099983215332,7.045000076293945 -26.915000915527344,6.052000045776367 -26.92300033569336,5.043000221252441 C-26.92300033569336,5.043000221252441 -26.92300033569336,-10.248000144958496 -26.92300033569336,-10.248000144958496 C-19.268999099731445,-4.954999923706055 -9.986000061035156,-1.8639999628067017 -0.004000000189989805,-1.8639999628067017 C9.986000061035156,-1.8639999628067017 19.268999099731445,-4.9629998207092285 26.92300033569336,-10.255999565124512z"/></g><g opacity="0.4" transform="matrix(1,0,0,1,250.0019989013672,276.9309997558594)" style="mix-blend-mode: multiply;"><path fill="rgb(178,104,54)" fill-opacity="1" d=" M59.14799880981445,26.933000564575195 C58.52799987792969,17.183000564575195 56.12799835205078,8.152999877929688 52.608001708984375,2.7730000019073486 C45.948001861572266,-7.427000045776367 33.79800033569336,-10.737000465393066 33.79800033569336,-10.737000465393066 C16.47800064086914,-14.937000274658203 -1.2419999837875366,-8.717000007629395 -10.022000312805176,-4.7769999504089355 C-13.67199993133545,-3.13700008392334 -17.91200065612793,-3.5369999408721924 -21.16200065612793,-5.85699987411499 C-21.16200065612793,-5.85699987411499 -33.78200149536133,-14.866999626159668 -33.78200149536133,-14.866999626159668 C-38.50199890136719,-18.386999130249023 -45.19200134277344,-17.297000885009766 -48.54199981689453,-12.456999778747559 C-52.821998596191406,-6.267000198364258 -57.0620002746582,3.003000020980835 -58.731998443603516,14.102999687194824 C-58.87200164794922,15.02299976348877 -58.981998443603516,15.942999839782715 -59.071998596191406,16.843000411987305 C-59.45199966430664,12.852999687194824 -59.402000427246094,8.593000411987305 -58.731998443603516,4.103000164031982 C-57.0620002746582,-6.997000217437744 -52.821998596191406,-16.267000198364258 -48.54199981689453,-22.457000732421875 C-45.19200134277344,-27.297000885009766 -38.50199890136719,-28.386999130249023 -33.78200149536133,-24.867000579833984 C-33.78200149536133,-24.867000579833984 -21.16200065612793,-15.857000350952148 -21.16200065612793,-15.857000350952148 C-17.91200065612793,-13.536999702453613 -13.67199993133545,-13.13700008392334 -10.022000312805176,-14.777000427246094 C-1.2419999837875366,-18.716999053955078 16.47800064086914,-24.937000274658203 33.79800033569336,-20.73699951171875 C33.79800033569336,-20.73699951171875 45.948001861572266,-17.427000045776367 52.608001708984375,-7.2270002365112305 C57.30799865722656,-0.017000000923871994 60.018001556396484,13.682999610900879 59.14799880981445,26.933000564575195z"/></g></g><g transform="matrix(1,0,0,1,0,-0.0000152587890625)" opacity="1" style="display: block;"><g opacity="1" transform="matrix(1,0,0,1,253.0709991455078,415.82000732421875)"><path stroke-linecap="round" stroke-linejoin="round" fill-opacity="0" stroke="rgb(18,19,49)" stroke-opacity="1" stroke-width="7" d=" M26.92300033569336,-20.986000061035156 C26.92300033569336,-20.986000061035156 26.92300033569336,-5.933000087738037 26.92300033569336,-5.933000087738037 C26.92300033569336,8.873000144958496 14.802000045776367,20.986000061035156 -0.004000000189989805,20.986000061035156 C-14.8100004196167,20.986000061035156 -26.92300033569336,8.873000144958496 -26.92300033569336,-5.933000087738037 C-26.92300033569336,-5.933000087738037 -26.92300033569336,-20.97800064086914 -26.92300033569336,-20.97800064086914"/></g><g opacity="1" transform="matrix(1,0,0,1,253.02000427246094,364.4849853515625)"><path stroke-linecap="round" stroke-linejoin="round" fill-opacity="0" stroke="rgb(18,19,49)" stroke-opacity="1" stroke-width="7" d=" M-48.400001525878906,-38.744998931884766 C-48.400001525878906,-38.744998931884766 -47.29999923706055,-6.985000133514404 -47.29999923706055,-6.985000133514404 C-46.86000061035156,5.775000095367432 -41.400001525878906,17.204999923706055 -32.86000061035156,25.44499969482422 C-31,27.2450008392334 -29,28.885000228881836 -26.8700008392334,30.364999771118164 C-19.219999313354492,35.654998779296875 -9.9399995803833,38.744998931884766 0.05000000074505806,38.744998931884766 C10.029999732971191,38.744998931884766 19.309999465942383,35.654998779296875 26.969999313354492,30.364999771118164 C38.880001068115234,22.114999771118164 46.849998474121094,8.545000076293945 47.38999938964844,-6.985000133514404 C47.38999938964844,-6.985000133514404 48.400001525878906,-35.82500076293945 48.400001525878906,-35.82500076293945"/></g><g opacity="1" transform="matrix(1,0,0,1,250,289.3280029296875)"><path stroke-linecap="round" stroke-linejoin="round" fill-opacity="0" stroke="rgb(18,19,49)" stroke-opacity="1" stroke-width="7" d=" M-45.37300109863281,36.60100173950195 C-14.314000129699707,35.305999755859375 10.482000350952148,15.984999656677246 22.04599952697754,-11.163999557495117 C48.104000091552734,7.4019999504089355 46.70399856567383,23.663000106811523 51.41699981689453,39.327999114990234 C62.845001220703125,23.714000701904297 60.60499954223633,-7.361000061035156 52.606998443603516,-19.6200008392334 C45.95000076293945,-29.822999954223633 33.79800033569336,-33.13100051879883 33.79800033569336,-33.13100051879883 C16.47800064086914,-37.33000183105469 -1.2369999885559082,-31.110000610351562 -10.020999908447266,-27.16900062561035 C-13.670000076293945,-25.531999588012695 -17.908000946044922,-25.934999465942383 -21.163999557495117,-28.257999420166016 C-21.163999557495117,-28.257999420166016 -33.78300094604492,-37.26300048828125 -33.78300094604492,-37.26300048828125 C-38.49800109863281,-40.78200149536133 -45.1879997253418,-39.68899917602539 -48.53799819946289,-34.85300064086914 C-52.82500076293945,-28.665000915527344 -57.05799865722656,-19.398000717163086 -58.724998474121094,-8.295000076293945 C-62.64699935913086,17.83300018310547 -45.28900146484375,36.512001037597656 -45.28900146484375,36.512001037597656"/></g></g><g transform="matrix(1,0.000002614406639622757,-0.000002614406639622757,1,0.00067138671875,-0.0005340576171875)" opacity="1" style="display: block;"><g opacity="1" transform="matrix(1,0,0,1,0,0)"><g opacity="1" transform="matrix(1,0,0,1,118.61900329589844,194.18499755859375)"><path fill="rgb(235,229,238)" fill-opacity="1" d=" M81.8010025024414,61.85499954223633 C81.8010025024414,61.85499954223633 44.6609992980957,33.775001525878906 44.6609992980957,33.775001525878906 M-33.77299880981445,44.66600036621094 C-9.104999542236328,63.31800079345703 26.013999938964844,58.441001892089844 44.66600036621094,33.77299880981445 C63.31800079345703,9.104999542236328 58.441001892089844,-26.013999938964844 33.77299880981445,-44.66600036621094 C9.104999542236328,-63.31800079345703 -26.013999938964844,-58.441001892089844 -44.66600036621094,-33.77299880981445 C-63.31800079345703,-9.104999542236328 -58.441001892089844,26.013999938964844 -33.77299880981445,44.66600036621094z"/></g><g opacity="1" transform="matrix(1,0,0,1,105.7760009765625,196.18499755859375)"><path fill="rgb(241,76,0)" fill-opacity="1" d=" M12.843999862670898,-15.64799976348877 C16.243000030517578,-21.809999465942383 23.117000579833984,-25.52199935913086 29.951000213623047,-22.610000610351562 C29.951000213623047,-22.610000610351562 39.1879997253418,-19.485000610351562 38.49399948120117,-8.550000190734863 C37.79999923706055,2.384999990463257 23.836999893188477,17.707000732421875 12.843999862670898,23.6200008392334 M12.843999862670898,-15.64799976348877 C9.444999694824219,-21.809999465942383 2.569999933242798,-25.52199935913086 -4.263999938964844,-22.610000610351562 C-4.263999938964844,-22.610000610351562 -13.50100040435791,-19.485000610351562 -12.807000160217285,-8.550000190734863 C-12.11299991607666,2.384999990463257 1.8509999513626099,17.707000732421875 12.843999862670898,23.6200008392334"/></g></g><g opacity="0" transform="matrix(1,0,0,1,0,0)"><g opacity="1" transform="matrix(1,0,0,1,118.61900329589844,194.18499755859375)"><path fill="rgb(235,229,238)" fill-opacity="1" d=" M-44.11899948120117,-33.38100051879883 C-44.11899948120117,-33.38100051879883 -44.191001892089844,-33.435001373291016 -44.191001892089844,-33.435001373291016 M-44.340999603271484,-33.41400146484375 C-44.29399871826172,-33.37799835205078 -44.22700119018555,-33.38800048828125 -44.191001892089844,-33.435001373291016 C-44.154998779296875,-33.481998443603516 -44.165000915527344,-33.54999923706055 -44.21200180053711,-33.58599853515625 C-44.25899887084961,-33.62200164794922 -44.32600021362305,-33.61199951171875 -44.36199951171875,-33.564998626708984 C-44.39799880981445,-33.518001556396484 -44.38800048828125,-33.45000076293945 -44.340999603271484,-33.41400146484375z"/></g><g opacity="1" transform="matrix(1,0,0,1,105.7760009765625,196.18499755859375)"><path fill="rgb(241,76,0)" fill-opacity="1" d=" M-31.433000564575195,-35.5260009765625 C-31.426000595092773,-35.53799819946289 -31.413000106811523,-35.54600143432617 -31.399999618530273,-35.540000915527344 C-31.399999618530273,-35.540000915527344 -31.381999969482422,-35.534000396728516 -31.382999420166016,-35.51300048828125 C-31.384000778198242,-35.492000579833984 -31.41200065612793,-35.46200180053711 -31.433000564575195,-35.45100021362305 M-31.433000564575195,-35.5260009765625 C-31.440000534057617,-35.53799819946289 -31.452999114990234,-35.54600143432617 -31.465999603271484,-35.540000915527344 C-31.465999603271484,-35.540000915527344 -31.482999801635742,-35.534000396728516 -31.48200035095215,-35.51300048828125 C-31.481000900268555,-35.492000579833984 -31.45400047302246,-35.46200180053711 -31.433000564575195,-35.45100021362305"/></g></g></g><g mask="url(#__lottie_element_12204_2)" style="mix-blend-mode: multiply; display: block;"><g transform="matrix(1,0.000002614406639622757,-0.000002614406639622757,1,0.00067138671875,-0.0005340576171875)" opacity="1"><g opacity="1" transform="matrix(1,0,0,1,0,0)"><g opacity="1" transform="matrix(1,0,0,1,118.61900329589844,194.18499755859375)"><path fill="rgb(235,229,238)" fill-opacity="1" d=" M81.8010025024414,61.85499954223633 C81.8010025024414,61.85499954223633 44.6609992980957,33.775001525878906 44.6609992980957,33.775001525878906 M-33.77299880981445,44.66600036621094 C-9.104999542236328,63.31800079345703 26.013999938964844,58.441001892089844 44.66600036621094,33.77299880981445 C63.31800079345703,9.104999542236328 58.441001892089844,-26.013999938964844 33.77299880981445,-44.66600036621094 C9.104999542236328,-63.31800079345703 -26.013999938964844,-58.441001892089844 -44.66600036621094,-33.77299880981445 C-63.31800079345703,-9.104999542236328 -58.441001892089844,26.013999938964844 -33.77299880981445,44.66600036621094z"/></g><g opacity="1" transform="matrix(1,0,0,1,105.7760009765625,196.18499755859375)"><path fill="rgb(241,76,0)" fill-opacity="1" d=" M12.843999862670898,-15.64799976348877 C16.243000030517578,-21.809999465942383 23.117000579833984,-25.52199935913086 29.951000213623047,-22.610000610351562 C29.951000213623047,-22.610000610351562 39.1879997253418,-19.485000610351562 38.49399948120117,-8.550000190734863 C37.79999923706055,2.384999990463257 23.836999893188477,17.707000732421875 12.843999862670898,23.6200008392334 M12.843999862670898,-15.64799976348877 C9.444999694824219,-21.809999465942383 2.569999933242798,-25.52199935913086 -4.263999938964844,-22.610000610351562 C-4.263999938964844,-22.610000610351562 -13.50100040435791,-19.485000610351562 -12.807000160217285,-8.550000190734863 C-12.11299991607666,2.384999990463257 1.8509999513626099,17.707000732421875 12.843999862670898,23.6200008392334"/></g></g><g opacity="0" transform="matrix(1,0,0,1,0,0)"><g opacity="1" transform="matrix(1,0,0,1,118.61900329589844,194.18499755859375)"><path fill="rgb(235,229,238)" fill-opacity="1" d=" M-44.11899948120117,-33.38100051879883 C-44.11899948120117,-33.38100051879883 -44.191001892089844,-33.435001373291016 -44.191001892089844,-33.435001373291016 M-44.340999603271484,-33.41400146484375 C-44.29399871826172,-33.37799835205078 -44.22700119018555,-33.38800048828125 -44.191001892089844,-33.435001373291016 C-44.154998779296875,-33.481998443603516 -44.165000915527344,-33.54999923706055 -44.21200180053711,-33.58599853515625 C-44.25899887084961,-33.62200164794922 -44.32600021362305,-33.61199951171875 -44.36199951171875,-33.564998626708984 C-44.39799880981445,-33.518001556396484 -44.38800048828125,-33.45000076293945 -44.340999603271484,-33.41400146484375z"/></g><g opacity="1" transform="matrix(1,0,0,1,105.7760009765625,196.18499755859375)"><path fill="rgb(241,76,0)" fill-opacity="1" d=" M-31.433000564575195,-35.5260009765625 C-31.426000595092773,-35.53799819946289 -31.413000106811523,-35.54600143432617 -31.399999618530273,-35.540000915527344 C-31.399999618530273,-35.540000915527344 -31.381999969482422,-35.534000396728516 -31.382999420166016,-35.51300048828125 C-31.384000778198242,-35.492000579833984 -31.41200065612793,-35.46200180053711 -31.433000564575195,-35.45100021362305 M-31.433000564575195,-35.5260009765625 C-31.440000534057617,-35.53799819946289 -31.452999114990234,-35.54600143432617 -31.465999603271484,-35.540000915527344 C-31.465999603271484,-35.540000915527344 -31.482999801635742,-35.534000396728516 -31.48200035095215,-35.51300048828125 C-31.481000900268555,-35.492000579833984 -31.45400047302246,-35.46200180053711 -31.433000564575195,-35.45100021362305"/></g></g></g></g><g transform="matrix(1,0.000002614406639622757,-0.000002614406639622757,1,0.00067138671875,-0.0005340576171875)" opacity="1" style="display: block;"><g opacity="1" transform="matrix(1,0,0,1,0,0)"><g opacity="1" transform="matrix(1,0,0,1,105.7760009765625,196.18499755859375)"><path stroke-linecap="round" stroke-linejoin="round" fill-opacity="0" stroke="rgb(18,19,49)" stroke-opacity="1" stroke-width="7" d=" M12.843999862670898,-15.64799976348877 C16.243000030517578,-21.809999465942383 23.117000579833984,-25.52199935913086 29.951000213623047,-22.610000610351562 C29.951000213623047,-22.610000610351562 39.1879997253418,-19.485000610351562 38.49399948120117,-8.550000190734863 C37.79999923706055,2.384999990463257 23.836999893188477,17.707000732421875 12.843999862670898,23.6200008392334 M12.843999862670898,-15.64799976348877 C9.444999694824219,-21.809999465942383 2.569999933242798,-25.52199935913086 -4.263999938964844,-22.610000610351562 C-4.263999938964844,-22.610000610351562 -13.50100040435791,-19.485000610351562 -12.807000160217285,-8.550000190734863 C-12.11299991607666,2.384999990463257 1.8509999513626099,17.707000732421875 12.843999862670898,23.6200008392334"/></g><g opacity="1" transform="matrix(1,0,0,1,118.61900329589844,194.18499755859375)"><path stroke-linecap="round" stroke-linejoin="round" fill-opacity="0" stroke="rgb(18,19,49)" stroke-opacity="1" stroke-width="7" d=" M81.8010025024414,61.85499954223633 C81.8010025024414,61.85499954223633 44.6609992980957,33.775001525878906 44.6609992980957,33.775001525878906 M-33.77299880981445,44.66600036621094 C-9.104999542236328,63.31800079345703 26.013999938964844,58.441001892089844 44.66600036621094,33.77299880981445 C63.31800079345703,9.104999542236328 58.441001892089844,-26.013999938964844 33.77299880981445,-44.66600036621094 C9.104999542236328,-63.31800079345703 -26.013999938964844,-58.441001892089844 -44.66600036621094,-33.77299880981445 C-63.31800079345703,-9.104999542236328 -58.441001892089844,26.013999938964844 -33.77299880981445,44.66600036621094z"/></g></g><g opacity="0" transform="matrix(1,0,0,1,0,0)"><g opacity="1" transform="matrix(1,0,0,1,105.7760009765625,196.18499755859375)"><path stroke-linecap="round" stroke-linejoin="round" fill-opacity="0" stroke="rgb(18,19,49)" stroke-opacity="1" stroke-width="7" d=" M-31.433000564575195,-35.5260009765625 C-31.426000595092773,-35.53799819946289 -31.413000106811523,-35.54600143432617 -31.399999618530273,-35.540000915527344 C-31.399999618530273,-35.540000915527344 -31.381999969482422,-35.534000396728516 -31.382999420166016,-35.51300048828125 C-31.384000778198242,-35.492000579833984 -31.41200065612793,-35.46200180053711 -31.433000564575195,-35.45100021362305 M-31.433000564575195,-35.5260009765625 C-31.440000534057617,-35.53799819946289 -31.452999114990234,-35.54600143432617 -31.465999603271484,-35.540000915527344 C-31.465999603271484,-35.540000915527344 -31.482999801635742,-35.534000396728516 -31.48200035095215,-35.51300048828125 C-31.481000900268555,-35.492000579833984 -31.45400047302246,-35.46200180053711 -31.433000564575195,-35.45100021362305"/></g><g opacity="1" transform="matrix(1,0,0,1,118.61900329589844,194.18499755859375)"><path stroke-linecap="round" stroke-linejoin="round" fill-opacity="0" stroke="rgb(18,19,49)" stroke-opacity="1" stroke-width="7" d=" M-44.11899948120117,-33.38100051879883 C-44.11899948120117,-33.38100051879883 -44.191001892089844,-33.435001373291016 -44.191001892089844,-33.435001373291016 M-44.340999603271484,-33.41400146484375 C-44.29399871826172,-33.37799835205078 -44.22700119018555,-33.38800048828125 -44.191001892089844,-33.435001373291016 C-44.154998779296875,-33.481998443603516 -44.165000915527344,-33.54999923706055 -44.21200180053711,-33.58599853515625 C-44.25899887084961,-33.62200164794922 -44.32600021362305,-33.61199951171875 -44.36199951171875,-33.564998626708984 C-44.39799880981445,-33.518001556396484 -44.38800048828125,-33.45000076293945 -44.340999603271484,-33.41400146484375z"/></g></g></g><g transform="matrix(1,0,0,1,0.000152587890625,-0.0001678466796875)" opacity="1" style="display: block;"><g opacity="1" transform="matrix(1,0,0,1,0,0)"><g opacity="1" transform="matrix(1,0,0,1,250,118.10600280761719)"><path fill="rgb(235,229,238)" fill-opacity="1" d=" M0,140.25399780273438 C0,140.25399780273438 0,56.0040168762207 0,56.0040168762207 M55.9999885559082,0.000030040711862966418 C55.9999885559082,30.928024291992188 30.927993774414062,56.00001907348633 0,56.00001907348633 C-30.927993774414062,56.00001907348633 -55.9999885559082,30.928024291992188 -55.9999885559082,0.000030040711862966418 C-55.9999885559082,-30.927963256835938 -30.927993774414062,-55.99995803833008 0,-55.99995803833008 C30.927993774414062,-55.99995803833008 55.9999885559082,-30.927963256835938 55.9999885559082,0.000030040711862966418z"/></g><g opacity="1" transform="matrix(1,0,0,1,0,0)"><g opacity="1" transform="matrix(1,0,0,1,265.29901123046875,101.08799743652344)"><path fill="rgb(75,179,253)" fill-opacity="1" d=" M0.7469965219497681,40.537025451660156 C0.7469965219497681,40.537025451660156 -31.343996047973633,40.537025451660156 -31.343996047973633,40.537025451660156 C-31.343996047973633,40.537025451660156 -42.51399230957031,9.601031303405762 -42.51399230957031,9.601031303405762 C-42.51399230957031,9.601031303405762 11.915993690490723,9.601031303405762 11.915993690490723,9.601031303405762 C11.915993690490723,9.601031303405762 0.7469965219497681,40.537025451660156 0.7469965219497681,40.537025451660156z M-35.74899673461914,9.601031303405762 C-35.74899673461914,9.601031303405762 -25.444997787475586,-9.600964546203613 -25.444997787475586,-9.600964546203613 M5.151995658874512,9.601031303405762 C5.151995658874512,9.601031303405762 -5.152002334594727,-9.600964546203613 -5.152002334594727,-9.600964546203613"/></g></g></g><g opacity="1" transform="matrix(1,0,0,1,0,0)"><g opacity="1" transform="matrix(1,0,0,1,250,118.10600280761719)"><path fill="rgb(235,229,238)" fill-opacity="1" d=" M0.1329999715089798,-56.139957427978516 C0.1329999715089798,-56.139957427978516 0.1329999715089798,-56.3399772644043 0.1329999715089798,-56.3399772644043 M0.2660119831562042,-56.47298812866211 C0.2660119831562042,-56.39998245239258 0.20600661635398865,-56.3399772644043 0.1329999715089798,-56.3399772644043 C0.059993334114551544,-56.3399772644043 -0.000012048385542584583,-56.39998245239258 -0.000012048385542584583,-56.47298812866211 C-0.000012048385542584583,-56.54599380493164 0.059993334114551544,-56.60599899291992 0.1329999715089798,-56.60599899291992 C0.20600661635398865,-56.60599899291992 0.2660119831562042,-56.54599380493164 0.2660119831562042,-56.47298812866211z"/></g><g opacity="1" transform="matrix(1,0,0,1,0,0)"><g opacity="1" transform="matrix(1,0,0,1,265.29901123046875,101.08799743652344)"><path fill="rgb(75,179,253)" fill-opacity="1" d=" M-15.127996444702148,-39.398983001708984 C-15.127996444702148,-39.398983001708984 -15.20400333404541,-39.398983001708984 -15.20400333404541,-39.398983001708984 C-15.20400333404541,-39.398983001708984 -15.230006217956543,-39.47298812866211 -15.230006217956543,-39.47298812866211 C-15.230006217956543,-39.47298812866211 -15.100994110107422,-39.47298812866211 -15.100994110107422,-39.47298812866211 C-15.100994110107422,-39.47298812866211 -15.127996444702148,-39.398983001708984 -15.127996444702148,-39.398983001708984z M-15.214004516601562,-39.47298812866211 C-15.214004516601562,-39.47298812866211 -15.19000244140625,-39.51799392700195 -15.19000244140625,-39.51799392700195 M-15.116995811462402,-39.47298812866211 C-15.116995811462402,-39.47298812866211 -15.141998291015625,-39.51799392700195 -15.141998291015625,-39.51799392700195"/></g></g></g></g><g mask="url(#__lottie_element_12216_2)" style="mix-blend-mode: multiply; display: block;"><g transform="matrix(1,0,0,1,0.000152587890625,-0.0001678466796875)" opacity="0.5"><g opacity="1" transform="matrix(1,0,0,1,0,0)"><g opacity="1" transform="matrix(1,0,0,1,250,118.10600280761719)"><path fill="rgb(235,229,238)" fill-opacity="1" d=" M0,140.25399780273438 C0,140.25399780273438 0,56.0040168762207 0,56.0040168762207 M55.9999885559082,0.000030040711862966418 C55.9999885559082,30.928024291992188 30.927993774414062,56.00001907348633 0,56.00001907348633 C-30.927993774414062,56.00001907348633 -55.9999885559082,30.928024291992188 -55.9999885559082,0.000030040711862966418 C-55.9999885559082,-30.927963256835938 -30.927993774414062,-55.99995803833008 0,-55.99995803833008 C30.927993774414062,-55.99995803833008 55.9999885559082,-30.927963256835938 55.9999885559082,0.000030040711862966418z"/></g><g opacity="1" transform="matrix(1,0,0,1,0,0)"><g opacity="1" transform="matrix(1,0,0,1,265.29901123046875,101.08799743652344)"><path fill="rgb(75,179,253)" fill-opacity="1" d=" M0.7469965219497681,40.537025451660156 C0.7469965219497681,40.537025451660156 -31.343996047973633,40.537025451660156 -31.343996047973633,40.537025451660156 C-31.343996047973633,40.537025451660156 -42.51399230957031,9.601031303405762 -42.51399230957031,9.601031303405762 C-42.51399230957031,9.601031303405762 11.915993690490723,9.601031303405762 11.915993690490723,9.601031303405762 C11.915993690490723,9.601031303405762 0.7469965219497681,40.537025451660156 0.7469965219497681,40.537025451660156z M-35.74899673461914,9.601031303405762 C-35.74899673461914,9.601031303405762 -25.444997787475586,-9.600964546203613 -25.444997787475586,-9.600964546203613 M5.151995658874512,9.601031303405762 C5.151995658874512,9.601031303405762 -5.152002334594727,-9.600964546203613 -5.152002334594727,-9.600964546203613"/></g></g></g><g opacity="1" transform="matrix(1,0,0,1,0,0)"><g opacity="1" transform="matrix(1,0,0,1,250,118.10600280761719)"><path fill="rgb(235,229,238)" fill-opacity="1" d=" M0.1329999715089798,-56.139957427978516 C0.1329999715089798,-56.139957427978516 0.1329999715089798,-56.3399772644043 0.1329999715089798,-56.3399772644043 M0.2660119831562042,-56.47298812866211 C0.2660119831562042,-56.39998245239258 0.20600661635398865,-56.3399772644043 0.1329999715089798,-56.3399772644043 C0.059993334114551544,-56.3399772644043 -0.000012048385542584583,-56.39998245239258 -0.000012048385542584583,-56.47298812866211 C-0.000012048385542584583,-56.54599380493164 0.059993334114551544,-56.60599899291992 0.1329999715089798,-56.60599899291992 C0.20600661635398865,-56.60599899291992 0.2660119831562042,-56.54599380493164 0.2660119831562042,-56.47298812866211z"/></g><g opacity="1" transform="matrix(1,0,0,1,0,0)"><g opacity="1" transform="matrix(1,0,0,1,265.29901123046875,101.08799743652344)"><path fill="rgb(75,179,253)" fill-opacity="1" d=" M-15.127996444702148,-39.398983001708984 C-15.127996444702148,-39.398983001708984 -15.20400333404541,-39.398983001708984 -15.20400333404541,-39.398983001708984 C-15.20400333404541,-39.398983001708984 -15.230006217956543,-39.47298812866211 -15.230006217956543,-39.47298812866211 C-15.230006217956543,-39.47298812866211 -15.100994110107422,-39.47298812866211 -15.100994110107422,-39.47298812866211 C-15.100994110107422,-39.47298812866211 -15.127996444702148,-39.398983001708984 -15.127996444702148,-39.398983001708984z M-15.214004516601562,-39.47298812866211 C-15.214004516601562,-39.47298812866211 -15.19000244140625,-39.51799392700195 -15.19000244140625,-39.51799392700195 M-15.116995811462402,-39.47298812866211 C-15.116995811462402,-39.47298812866211 -15.141998291015625,-39.51799392700195 -15.141998291015625,-39.51799392700195"/></g></g></g></g></g><g transform="matrix(1,0,0,1,0.000152587890625,-0.0001678466796875)" opacity="1" style="display: block;"><g opacity="1" transform="matrix(1,0,0,1,0,0)"><g opacity="1" transform="matrix(1,0,0,1,0,0)"><g opacity="1" transform="matrix(1,0,0,1,265.29901123046875,101.08799743652344)"><path stroke-linecap="round" stroke-linejoin="round" fill-opacity="0" stroke="rgb(18,19,49)" stroke-opacity="1" stroke-width="7" d=" M0.7469965219497681,40.537025451660156 C0.7469965219497681,40.537025451660156 -31.343996047973633,40.537025451660156 -31.343996047973633,40.537025451660156 C-31.343996047973633,40.537025451660156 -42.51399230957031,9.601031303405762 -42.51399230957031,9.601031303405762 C-42.51399230957031,9.601031303405762 11.915993690490723,9.601031303405762 11.915993690490723,9.601031303405762 C11.915993690490723,9.601031303405762 0.7469965219497681,40.537025451660156 0.7469965219497681,40.537025451660156z M-35.74899673461914,9.601031303405762 C-35.74899673461914,9.601031303405762 -25.444997787475586,-9.600964546203613 -25.444997787475586,-9.600964546203613 M5.151995658874512,9.601031303405762 C5.151995658874512,9.601031303405762 -5.152002334594727,-9.600964546203613 -5.152002334594727,-9.600964546203613"/></g></g><g opacity="1" transform="matrix(1,0,0,1,250,118.10600280761719)"><path stroke-linecap="round" stroke-linejoin="round" fill-opacity="0" stroke="rgb(18,19,49)" stroke-opacity="1" stroke-width="7" d=" M0,140.25399780273438 C0,140.25399780273438 0,56.0040168762207 0,56.0040168762207 M55.9999885559082,0.000030040711862966418 C55.9999885559082,30.928024291992188 30.927993774414062,56.00001907348633 0,56.00001907348633 C-30.927993774414062,56.00001907348633 -55.9999885559082,30.928024291992188 -55.9999885559082,0.000030040711862966418 C-55.9999885559082,-30.927963256835938 -30.927993774414062,-55.99995803833008 0,-55.99995803833008 C30.927993774414062,-55.99995803833008 55.9999885559082,-30.927963256835938 55.9999885559082,0.000030040711862966418z"/></g></g><g opacity="1" transform="matrix(1,0,0,1,0,0)"><g opacity="1" transform="matrix(1,0,0,1,0,0)"><g opacity="1" transform="matrix(1,0,0,1,265.29901123046875,101.08799743652344)"><path stroke-linecap="round" stroke-linejoin="round" fill-opacity="0" stroke="rgb(18,19,49)" stroke-opacity="1" stroke-width="7" d=" M-15.127996444702148,-39.398983001708984 C-15.127996444702148,-39.398983001708984 -15.20400333404541,-39.398983001708984 -15.20400333404541,-39.398983001708984 C-15.20400333404541,-39.398983001708984 -15.230006217956543,-39.47298812866211 -15.230006217956543,-39.47298812866211 C-15.230006217956543,-39.47298812866211 -15.100994110107422,-39.47298812866211 -15.100994110107422,-39.47298812866211 C-15.100994110107422,-39.47298812866211 -15.127996444702148,-39.398983001708984 -15.127996444702148,-39.398983001708984z M-15.214004516601562,-39.47298812866211 C-15.214004516601562,-39.47298812866211 -15.19000244140625,-39.51799392700195 -15.19000244140625,-39.51799392700195 M-15.116995811462402,-39.47298812866211 C-15.116995811462402,-39.47298812866211 -15.141998291015625,-39.51799392700195 -15.141998291015625,-39.51799392700195"/></g></g><g opacity="1" transform="matrix(1,0,0,1,250,118.10600280761719)"><path stroke-linecap="round" stroke-linejoin="round" fill-opacity="0" stroke="rgb(18,19,49)" stroke-opacity="1" stroke-width="7" d=" M0.1329999715089798,-56.139957427978516 C0.1329999715089798,-56.139957427978516 0.1329999715089798,-56.3399772644043 0.1329999715089798,-56.3399772644043 M0.2660119831562042,-56.47298812866211 C0.2660119831562042,-56.39998245239258 0.20600661635398865,-56.3399772644043 0.1329999715089798,-56.3399772644043 C0.059993334114551544,-56.3399772644043 -0.000012048385542584583,-56.39998245239258 -0.000012048385542584583,-56.47298812866211 C-0.000012048385542584583,-56.54599380493164 0.059993334114551544,-56.60599899291992 0.1329999715089798,-56.60599899291992 C0.20600661635398865,-56.60599899291992 0.2660119831562042,-56.54599380493164 0.2660119831562042,-56.47298812866211z"/></g></g></g><g transform="matrix(0.9999115467071533,-0.013301841914653778,0.013301841914653778,0.9999115467071533,-3.4283447265625,3.9426116943359375)" opacity="1" style="display: block;"><g opacity="1" transform="matrix(1,0,0,1,0,0)"><g opacity="1" transform="matrix(1,0,0,1,381.1579895019531,195.9669952392578)"><path fill="rgb(235,229,238)" fill-opacity="1" d=" M-45.9789924621582,32.70213317871094 C-45.9789924621582,32.70213317871094 -86.4930419921875,63.73035430908203 -86.4930419921875,63.73035430908203 M33.33627700805664,44.736778259277344 C8.75682258605957,63.32182312011719 -26.236116409301758,58.46233367919922 -44.821163177490234,33.88288116455078 C-63.40620803833008,9.303426742553711 -58.54671859741211,-25.689512252807617 -33.96726608276367,-44.274559020996094 C-9.387812614440918,-62.85960388183594 25.605127334594727,-58.00011444091797 44.1901741027832,-33.42066192626953 C62.77521896362305,-8.841208457946777 57.91572952270508,26.151731491088867 33.33627700805664,44.736778259277344z"/></g><g opacity="1" transform="matrix(1,0,0,1,381.1579895019531,195.9669952392578)"><path fill="rgb(44,165,141)" fill-opacity="1" d=" M-17.630117416381836,-9.328452110290527 C-17.630117416381836,0.2341000884771347 -0.3154933452606201,27.105295181274414 -0.3154933452606201,27.105295181274414 C-0.3154933452606201,27.105295181274414 16.999128341674805,0.2341000884771347 16.999128341674805,-9.328452110290527 C16.999128341674805,-18.89100456237793 9.247058868408203,-26.643077850341797 -0.3154933452606201,-26.643077850341797 C-9.878046035766602,-26.643077850341797 -17.630117416381836,-18.89100456237793 -17.630117416381836,-9.328452110290527z M0.0252767875790596,-9.700114250183105 C0.0252767875790596,-9.700114250183105 0.0252767875790596,-9.949213981628418 0.0252767875790596,-9.949213981628418"/></g></g><g opacity="1" transform="matrix(1,0,0,1,0,0)"><g opacity="1" transform="matrix(1,0,0,1,381.1579895019531,195.9669952392578)"><path fill="rgb(235,229,238)" fill-opacity="1" d=" M45.221473693847656,-32.7152214050293 C45.221473693847656,-32.7152214050293 44.64552307128906,-32.27344512939453 44.64552307128906,-32.27344512939453 M46.34920883178711,-32.54386520385742 C45.99966049194336,-32.27991485595703 45.50160217285156,-32.34842300415039 45.237648010253906,-32.697967529296875 C44.97369384765625,-33.047515869140625 45.04220199584961,-33.54557800292969 45.39175033569336,-33.80952835083008 C45.741294860839844,-34.073482513427734 46.239356994628906,-34.004974365234375 46.50331115722656,-33.65542984008789 C46.76726531982422,-33.30588150024414 46.69875717163086,-32.80781936645508 46.34920883178711,-32.54386520385742z"/></g><g opacity="1" transform="matrix(1,0,0,1,381.1579895019531,195.9669952392578)"><path fill="rgb(44,165,141)" fill-opacity="1" d=" M45.624603271484375,-33.31263732910156 C45.624603271484375,-33.17618942260742 45.870975494384766,-32.79438400268555 45.870975494384766,-32.79438400268555 C45.870975494384766,-32.79438400268555 46.116355895996094,-33.17618942260742 46.116355895996094,-33.31263732910156 C46.116355895996094,-33.4490852355957 46.007423400878906,-33.55901336669922 45.870975494384766,-33.55901336669922 C45.734527587890625,-33.55901336669922 45.624603271484375,-33.4490852355957 45.624603271484375,-33.31263732910156z M45.875205993652344,-33.31797409057617 C45.875205993652344,-33.31797409057617 45.875205993652344,-33.32087707519531 45.875205993652344,-33.32087707519531"/></g></g></g><g mask="url(#__lottie_element_12228_2)" style="mix-blend-mode: multiply; display: block;"><g transform="matrix(0.9999115467071533,-0.013301841914653778,0.013301841914653778,0.9999115467071533,-3.4283447265625,3.9426116943359375)" opacity="1"><g opacity="1" transform="matrix(1,0,0,1,0,0)"><g opacity="1" transform="matrix(1,0,0,1,381.1579895019531,195.9669952392578)"><path fill="rgb(235,229,238)" fill-opacity="1" d=" M-45.9789924621582,32.70213317871094 C-45.9789924621582,32.70213317871094 -86.4930419921875,63.73035430908203 -86.4930419921875,63.73035430908203 M33.33627700805664,44.736778259277344 C8.75682258605957,63.32182312011719 -26.236116409301758,58.46233367919922 -44.821163177490234,33.88288116455078 C-63.40620803833008,9.303426742553711 -58.54671859741211,-25.689512252807617 -33.96726608276367,-44.274559020996094 C-9.387812614440918,-62.85960388183594 25.605127334594727,-58.00011444091797 44.1901741027832,-33.42066192626953 C62.77521896362305,-8.841208457946777 57.91572952270508,26.151731491088867 33.33627700805664,44.736778259277344z"/></g><g opacity="1" transform="matrix(1,0,0,1,381.1579895019531,195.9669952392578)"><path fill="rgb(44,165,141)" fill-opacity="1" d=" M-17.630117416381836,-9.328452110290527 C-17.630117416381836,0.2341000884771347 -0.3154933452606201,27.105295181274414 -0.3154933452606201,27.105295181274414 C-0.3154933452606201,27.105295181274414 16.999128341674805,0.2341000884771347 16.999128341674805,-9.328452110290527 C16.999128341674805,-18.89100456237793 9.247058868408203,-26.643077850341797 -0.3154933452606201,-26.643077850341797 C-9.878046035766602,-26.643077850341797 -17.630117416381836,-18.89100456237793 -17.630117416381836,-9.328452110290527z M0.0252767875790596,-9.700114250183105 C0.0252767875790596,-9.700114250183105 0.0252767875790596,-9.949213981628418 0.0252767875790596,-9.949213981628418"/></g></g><g opacity="1" transform="matrix(1,0,0,1,0,0)" style="mix-blend-mode: multiply;"><g opacity="1" transform="matrix(1,0,0,1,381.1579895019531,195.9669952392578)"><path fill="rgb(235,229,238)" fill-opacity="1" d=" M45.221473693847656,-32.7152214050293 C45.221473693847656,-32.7152214050293 44.64552307128906,-32.27344512939453 44.64552307128906,-32.27344512939453 M46.34920883178711,-32.54386520385742 C45.99966049194336,-32.27991485595703 45.50160217285156,-32.34842300415039 45.237648010253906,-32.697967529296875 C44.97369384765625,-33.047515869140625 45.04220199584961,-33.54557800292969 45.39175033569336,-33.80952835083008 C45.741294860839844,-34.073482513427734 46.239356994628906,-34.004974365234375 46.50331115722656,-33.65542984008789 C46.76726531982422,-33.30588150024414 46.69875717163086,-32.80781936645508 46.34920883178711,-32.54386520385742z"/></g><g opacity="1" transform="matrix(1,0,0,1,381.1579895019531,195.9669952392578)" style="mix-blend-mode: multiply;"><path fill="rgb(44,165,141)" fill-opacity="1" d=" M45.624603271484375,-33.31263732910156 C45.624603271484375,-33.17618942260742 45.870975494384766,-32.79438400268555 45.870975494384766,-32.79438400268555 C45.870975494384766,-32.79438400268555 46.116355895996094,-33.17618942260742 46.116355895996094,-33.31263732910156 C46.116355895996094,-33.4490852355957 46.007423400878906,-33.55901336669922 45.870975494384766,-33.55901336669922 C45.734527587890625,-33.55901336669922 45.624603271484375,-33.4490852355957 45.624603271484375,-33.31263732910156z M45.875205993652344,-33.31797409057617 C45.875205993652344,-33.31797409057617 45.875205993652344,-33.32087707519531 45.875205993652344,-33.32087707519531"/></g></g></g></g><g transform="matrix(0.9999115467071533,-0.013301841914653778,0.013301841914653778,0.9999115467071533,-3.4283447265625,3.9426116943359375)" opacity="1" style="display: block;"><g opacity="1" transform="matrix(1,0,0,1,0,0)"><g opacity="1" transform="matrix(1,0,0,1,381.1579895019531,195.9669952392578)"><path stroke-linecap="round" stroke-linejoin="round" fill-opacity="0" stroke="rgb(18,19,49)" stroke-opacity="1" stroke-width="7" d=" M-45.9789924621582,32.70213317871094 C-45.9789924621582,32.70213317871094 -86.4930419921875,63.73035430908203 -86.4930419921875,63.73035430908203 M33.33627700805664,44.736778259277344 C8.75682258605957,63.32182312011719 -26.236116409301758,58.46233367919922 -44.821163177490234,33.88288116455078 C-63.40620803833008,9.303426742553711 -58.54671859741211,-25.689512252807617 -33.96726608276367,-44.274559020996094 C-9.387812614440918,-62.85960388183594 25.605127334594727,-58.00011444091797 44.1901741027832,-33.42066192626953 C62.77521896362305,-8.841208457946777 57.91572952270508,26.151731491088867 33.33627700805664,44.736778259277344z"/></g><g opacity="1" transform="matrix(1,0,0,1,381.1579895019531,195.9669952392578)"><path stroke-linecap="round" stroke-linejoin="round" fill-opacity="0" stroke="rgb(18,19,49)" stroke-opacity="1" stroke-width="7" d=" M-17.630117416381836,-9.328452110290527 C-17.630117416381836,0.2341000884771347 -0.3154933452606201,27.105295181274414 -0.3154933452606201,27.105295181274414 C-0.3154933452606201,27.105295181274414 16.999128341674805,0.2341000884771347 16.999128341674805,-9.328452110290527 C16.999128341674805,-18.89100456237793 9.247058868408203,-26.643077850341797 -0.3154933452606201,-26.643077850341797 C-9.878046035766602,-26.643077850341797 -17.630117416381836,-18.89100456237793 -17.630117416381836,-9.328452110290527z"/></g><g opacity="1" transform="matrix(1,0,0,1,381.1579895019531,195.9669952392578)"><path stroke-linecap="round" stroke-linejoin="round" fill-opacity="0" stroke="rgb(18,19,49)" stroke-opacity="1" stroke-width="12.04" d=" M0.0252767875790596,-9.700114250183105 C0.0252767875790596,-9.700114250183105 0.0252767875790596,-9.949213981628418 0.0252767875790596,-9.949213981628418"/></g></g><g opacity="1" transform="matrix(1,0,0,1,0,0)"><g opacity="1" transform="matrix(1,0,0,1,381.1579895019531,195.9669952392578)"><path stroke-linecap="round" stroke-linejoin="round" fill-opacity="0" stroke="rgb(18,19,49)" stroke-opacity="1" stroke-width="7" d=" M45.221473693847656,-32.7152214050293 C45.221473693847656,-32.7152214050293 44.64552307128906,-32.27344512939453 44.64552307128906,-32.27344512939453 M46.34920883178711,-32.54386520385742 C45.99966049194336,-32.27991485595703 45.50160217285156,-32.34842300415039 45.237648010253906,-32.697967529296875 C44.97369384765625,-33.047515869140625 45.04220199584961,-33.54557800292969 45.39175033569336,-33.80952835083008 C45.741294860839844,-34.073482513427734 46.239356994628906,-34.004974365234375 46.50331115722656,-33.65542984008789 C46.76726531982422,-33.30588150024414 46.69875717163086,-32.80781936645508 46.34920883178711,-32.54386520385742z"/></g><g opacity="1" transform="matrix(1,0,0,1,381.1579895019531,195.9669952392578)"><path stroke-linecap="round" stroke-linejoin="round" fill-opacity="0" stroke="rgb(18,19,49)" stroke-opacity="1" stroke-width="7" d=" M45.624603271484375,-33.31263732910156 C45.624603271484375,-33.17618942260742 45.870975494384766,-32.79438400268555 45.870975494384766,-32.79438400268555 C45.870975494384766,-32.79438400268555 46.116355895996094,-33.17618942260742 46.116355895996094,-33.31263732910156 C46.116355895996094,-33.4490852355957 46.007423400878906,-33.55901336669922 45.870975494384766,-33.55901336669922 C45.734527587890625,-33.55901336669922 45.624603271484375,-33.4490852355957 45.624603271484375,-33.31263732910156z"/></g><g opacity="1" transform="matrix(1,0,0,1,381.1579895019531,195.9669952392578)"><path stroke-linecap="round" stroke-linejoin="round" fill-opacity="0" stroke="rgb(18,19,49)" stroke-opacity="1" stroke-width="12.04" d=" M45.875205993652344,-33.31797409057617 C45.875205993652344,-33.31797409057617 45.875205993652344,-33.32087707519531 45.875205993652344,-33.32087707519531"/></g></g></g><g class="com" transform="matrix(2.65159010887146,0,0,2.65159010887146,37.9818115234375,480.39056396484375)" opacity="0.2" style="display: none;"><g opacity="1" transform="matrix(1,0,0,1,0,0)"><path fill="rgb(0,0,0)" fill-opacity="1" d=" M141.6959991455078,0 C141.6959991455078,0 144.6699981689453,0 144.6699981689453,0 C144.6699981689453,0 144.6699981689453,-12.715999603271484 144.6699981689453,-12.715999603271484 C144.6699981689453,-12.715999603271484 148.62899780273438,0 148.62899780273438,0 C148.62899780273438,0 151.25399780273438,0 151.25399780273438,0 C151.25399780273438,0 155.2949981689453,-12.715999603271484 155.2949981689453,-12.715999603271484 C155.2949981689453,-12.715999603271484 155.2949981689453,0 155.2949981689453,0 C155.2949981689453,0 158.4530029296875,0 158.4530029296875,0 C158.4530029296875,0 158.4530029296875,-14.829000473022461 158.4530029296875,-14.829000473022461 C158.4530029296875,-14.829000473022461 153.4080047607422,-14.829000473022461 153.4080047607422,-14.829000473022461 C153.4080047607422,-14.829000473022461 150.0240020751953,-4.040999889373779 150.0240020751953,-4.040999889373779 C150.0240020751953,-4.040999889373779 146.88499450683594,-14.829000473022461 146.88499450683594,-14.829000473022461 C146.88499450683594,-14.829000473022461 141.6959991455078,-14.829000473022461 141.6959991455078,-14.829000473022461 C141.6959991455078,-14.829000473022461 141.6959991455078,0 141.6959991455078,0z"/></g><g opacity="1" transform="matrix(1,0,0,1,0,0)"><path fill="rgb(0,0,0)" fill-opacity="1" d=" M128.80499267578125,-7.302000045776367 C128.80499267578125,-8.984000205993652 129.05099487304688,-10.583000183105469 129.89199829101562,-11.609000205993652 C130.48699951171875,-12.368000030517578 131.42999267578125,-12.859999656677246 132.6199951171875,-12.859999656677246 C134.13800048828125,-12.859999656677246 135.38900756835938,-12.0600004196167 136.00399780273438,-10.234999656677246 C136.31199645996094,-9.333000183105469 136.3730010986328,-8.307000160217285 136.3730010986328,-7.589000225067139 C136.3730010986328,-5.230000019073486 135.86000061035156,-4.080999851226807 135.3679962158203,-3.3429999351501465 C134.7729949951172,-2.4200000762939453 133.89100646972656,-1.968999981880188 132.5989990234375,-1.968999981880188 C131.1219940185547,-1.968999981880188 130.36300659179688,-2.5439999103546143 129.91200256347656,-3.1589999198913574 C129.02999877929688,-4.308000087738037 128.80499267578125,-5.88700008392334 128.80499267578125,-7.302000045776367z M125.48200225830078,-7.198999881744385 C125.48200225830078,-5.84499979019165 125.68800354003906,-3.384000062942505 127.30799865722656,-1.6610000133514404 C128.66200256347656,-0.2460000067949295 130.60899353027344,0.36899998784065247 132.55799865722656,0.36899998784065247 C133.78900146484375,0.36899998784065247 136.18800354003906,0.10300000011920929 137.82899475097656,-1.7430000305175781 C139.03900146484375,-3.0969998836517334 139.6959991455078,-5.394000053405762 139.6959991455078,-7.547999858856201 C139.6959991455078,-9.003999710083008 139.38800048828125,-11.321999549865723 137.8090057373047,-13.126999855041504 C136.35299682617188,-14.767999649047852 134.17799377441406,-15.13700008392334 132.5989990234375,-15.13700008392334 C127.26599884033203,-15.13700008392334 125.48200225830078,-11.13700008392334 125.48200225830078,-7.198999881744385z"/></g><g opacity="1" transform="matrix(1,0,0,1,0,0)"><path fill="rgb(0,0,0)" fill-opacity="1" d=" M124.04000091552734,-9.98900032043457 C124.04000091552734,-12.942999839782715 121.76399993896484,-14.91100025177002 118.52300262451172,-14.91100025177002 C114.35900115966797,-14.91100025177002 111.73400115966797,-11.793999671936035 111.73400115966797,-7.0970001220703125 C111.73400115966797,-3.4260001182556152 113.3949966430664,0.3490000069141388 118.50199890136719,0.3490000069141388 C119.85600280761719,0.3490000069141388 121.51699829101562,0.04100000113248825 122.83000183105469,-1.312999963760376 C124.0199966430664,-2.5439999103546143 124.10099792480469,-3.9170000553131104 124.16300201416016,-4.798999786376953 C124.16300201416016,-4.798999786376953 120.81999969482422,-4.798999786376953 120.81999969482422,-4.798999786376953 C120.75800323486328,-2.8299999237060547 119.48699951171875,-1.9900000095367432 118.15399932861328,-1.9900000095367432 C115.05699920654297,-1.9900000095367432 115.05699920654297,-6.193999767303467 115.05699920654297,-7.076000213623047 C115.05699920654297,-10.131999969482422 116.04100036621094,-12.593000411987305 118.4000015258789,-12.593000411987305 C120.55400085449219,-12.593000411987305 120.73799896240234,-10.501999855041504 120.80000305175781,-9.98900032043457 C120.80000305175781,-9.98900032043457 124.04000091552734,-9.98900032043457 124.04000091552734,-9.98900032043457z"/></g><g opacity="1" transform="matrix(1,0,0,1,0,0)"><path fill="rgb(0,0,0)" fill-opacity="1" d=" M106.89299774169922,0 C106.89299774169922,0 109.49700164794922,0 109.49700164794922,0 C109.49700164794922,0 109.49700164794922,-2.7279999256134033 109.49700164794922,-2.7279999256134033 C109.49700164794922,-2.7279999256134033 106.89299774169922,-2.7279999256134033 106.89299774169922,-2.7279999256134033 C106.89299774169922,-2.7279999256134033 106.89299774169922,0 106.89299774169922,0z"/></g><g opacity="1" transform="matrix(1,0,0,1,0,0)"><path fill="rgb(0,0,0)" fill-opacity="1" d=" M91.00700378417969,0 C91.00700378417969,0 94.0009994506836,0 94.0009994506836,0 C94.0009994506836,0 94.0009994506836,-12.305999755859375 94.0009994506836,-12.305999755859375 C94.0009994506836,-12.305999755859375 99.74400329589844,0 99.74400329589844,0 C99.74400329589844,0 104.11299896240234,0 104.11299896240234,0 C104.11299896240234,0 104.11299896240234,-14.829000473022461 104.11299896240234,-14.829000473022461 C104.11299896240234,-14.829000473022461 101.15899658203125,-14.829000473022461 101.15899658203125,-14.829000473022461 C101.15899658203125,-14.829000473022461 101.15899658203125,-3.1589999198913574 101.15899658203125,-3.1589999198913574 C101.15899658203125,-3.1589999198913574 95.60099792480469,-14.829000473022461 95.60099792480469,-14.829000473022461 C95.60099792480469,-14.829000473022461 91.00700378417969,-14.829000473022461 91.00700378417969,-14.829000473022461 C91.00700378417969,-14.829000473022461 91.00700378417969,0 91.00700378417969,0z"/></g><g opacity="1" transform="matrix(1,0,0,1,0,0)"><path fill="rgb(0,0,0)" fill-opacity="1" d=" M77.86900329589844,-7.302000045776367 C77.86900329589844,-8.984000205993652 78.11499786376953,-10.583000183105469 78.95600128173828,-11.609000205993652 C79.5510025024414,-12.368000030517578 80.49400329589844,-12.859999656677246 81.68399810791016,-12.859999656677246 C83.2020034790039,-12.859999656677246 84.4530029296875,-12.0600004196167 85.06800079345703,-10.234999656677246 C85.3759994506836,-9.333000183105469 85.43699645996094,-8.307000160217285 85.43699645996094,-7.589000225067139 C85.43699645996094,-5.230000019073486 84.92400360107422,-4.080999851226807 84.43199920654297,-3.3429999351501465 C83.83699798583984,-2.4200000762939453 82.95500183105469,-1.968999981880188 81.66300201416016,-1.968999981880188 C80.18599700927734,-1.968999981880188 79.4280014038086,-2.5439999103546143 78.97699737548828,-3.1589999198913574 C78.09500122070312,-4.308000087738037 77.86900329589844,-5.88700008392334 77.86900329589844,-7.302000045776367z M74.5459976196289,-7.198999881744385 C74.5459976196289,-5.84499979019165 74.75199890136719,-3.384000062942505 76.37200164794922,-1.6610000133514404 C77.72599792480469,-0.2460000067949295 79.6729965209961,0.36899998784065247 81.62200164794922,0.36899998784065247 C82.85299682617188,0.36899998784065247 85.25299835205078,0.10300000011920929 86.89399719238281,-1.7430000305175781 C88.10399627685547,-3.0969998836517334 88.76000213623047,-5.394000053405762 88.76000213623047,-7.547999858856201 C88.76000213623047,-9.003999710083008 88.4520034790039,-11.321999549865723 86.87300109863281,-13.126999855041504 C85.41699981689453,-14.767999649047852 83.24199676513672,-15.13700008392334 81.66300201416016,-15.13700008392334 C76.33000183105469,-15.13700008392334 74.5459976196289,-11.13700008392334 74.5459976196289,-7.198999881744385z"/></g><g opacity="1" transform="matrix(1,0,0,1,0,0)"><path fill="rgb(0,0,0)" fill-opacity="1" d=" M73.10399627685547,-9.98900032043457 C73.10399627685547,-12.942999839782715 70.8280029296875,-14.91100025177002 67.58699798583984,-14.91100025177002 C63.42300033569336,-14.91100025177002 60.79800033569336,-11.793999671936035 60.79800033569336,-7.0970001220703125 C60.79800033569336,-3.4260001182556152 62.45899963378906,0.3490000069141388 67.56600189208984,0.3490000069141388 C68.91999816894531,0.3490000069141388 70.58100128173828,0.04100000113248825 71.89399719238281,-1.312999963760376 C73.08399963378906,-2.5439999103546143 73.16500091552734,-3.9170000553131104 73.22699737548828,-4.798999786376953 C73.22699737548828,-4.798999786376953 69.88400268554688,-4.798999786376953 69.88400268554688,-4.798999786376953 C69.8219985961914,-2.8299999237060547 68.5510025024414,-1.9900000095367432 67.21800231933594,-1.9900000095367432 C64.12100219726562,-1.9900000095367432 64.12100219726562,-6.193999767303467 64.12100219726562,-7.076000213623047 C64.12100219726562,-10.131999969482422 65.1050033569336,-12.593000411987305 67.46399688720703,-12.593000411987305 C69.61799621582031,-12.593000411987305 69.802001953125,-10.501999855041504 69.86399841308594,-9.98900032043457 C69.86399841308594,-9.98900032043457 73.10399627685547,-9.98900032043457 73.10399627685547,-9.98900032043457z"/></g><g opacity="1" transform="matrix(1,0,0,1,0,0)"><path fill="rgb(0,0,0)" fill-opacity="1" d=" M55.66899871826172,0 C55.66899871826172,0 58.8489990234375,0 58.8489990234375,0 C58.8489990234375,0 58.8489990234375,-14.869999885559082 58.8489990234375,-14.869999885559082 C58.8489990234375,-14.869999885559082 55.66899871826172,-14.869999885559082 55.66899871826172,-14.869999885559082 C55.66899871826172,-14.869999885559082 55.66899871826172,0 55.66899871826172,0z"/></g><g opacity="1" transform="matrix(1,0,0,1,0,0)"><path fill="rgb(0,0,0)" fill-opacity="1" d=" M44.28799819946289,-12.387999534606934 C46.112998962402344,-12.470000267028809 46.95500183105469,-12.368000030517578 47.611000061035156,-12.182999610900879 C49.60100173950195,-11.628999710083008 50.31800079345703,-9.701000213623047 50.31800079345703,-7.609000205993652 C50.31800079345703,-6.890999794006348 50.236000061035156,-4.676000118255615 48.98500061035156,-3.424999952316284 C48.0620002746582,-2.502000093460083 46.893001556396484,-2.4000000953674316 45.53900146484375,-2.4000000953674316 C45.16999816894531,-2.4000000953674316 44.637001037597656,-2.4200000762939453 44.28799819946289,-2.440999984741211 C44.28799819946289,-2.440999984741211 44.28799819946289,-12.387999534606934 44.28799819946289,-12.387999534606934z M41.06800079345703,0 C41.06800079345703,0 45.68299865722656,0 45.68299865722656,0 C47.18000030517578,0 47.79499816894531,-0.061000000685453415 48.3489990234375,-0.164000004529953 C51.159000396728516,-0.6769999861717224 53.599998474121094,-3.055999994277954 53.599998474121094,-7.609000205993652 C53.599998474121094,-9.722000122070312 52.94300079345703,-12.0600004196167 51.07699966430664,-13.434000015258789 C49.292999267578125,-14.746999740600586 46.790000915527344,-14.767999649047852 45.970001220703125,-14.767999649047852 C45.970001220703125,-14.767999649047852 41.06800079345703,-14.788000106811523 41.06800079345703,-14.788000106811523 C41.06800079345703,-14.788000106811523 41.06800079345703,0 41.06800079345703,0z"/></g><g opacity="1" transform="matrix(1,0,0,1,0,0)"><path fill="rgb(0,0,0)" fill-opacity="1" d=" M30.518999099731445,-12.491000175476074 C30.518999099731445,-12.491000175476074 32.652000427246094,-12.491000175476074 32.652000427246094,-12.491000175476074 C33.65700149536133,-12.491000175476074 34.25199890136719,-12.491000175476074 34.74399948120117,-12.142000198364258 C35.03099822998047,-11.956999778747559 35.52399826049805,-11.486000061035156 35.52399826049805,-10.480999946594238 C35.52399826049805,-9.4350004196167 34.92900085449219,-8.92199993133545 34.702999114990234,-8.758000373840332 C34.189998626708984,-8.347999572753906 33.45199966430664,-8.347999572753906 33.08300018310547,-8.347999572753906 C33.08300018310547,-8.347999572753906 30.518999099731445,-8.347999572753906 30.518999099731445,-8.347999572753906 C30.518999099731445,-8.347999572753906 30.518999099731445,-12.491000175476074 30.518999099731445,-12.491000175476074z M27.381000518798828,0 C27.381000518798828,0 30.621999740600586,0 30.621999740600586,0 C30.621999740600586,0 30.621999740600586,-5.988999843597412 30.621999740600586,-5.988999843597412 C30.621999740600586,-5.988999843597412 33.4109992980957,-5.988999843597412 33.4109992980957,-5.988999843597412 C33.944000244140625,-5.988999843597412 34.7239990234375,-5.988999843597412 35.01100158691406,-5.1479997634887695 C35.215999603271484,-4.573999881744385 35.66699981689453,-0.8199999928474426 35.81100082397461,0 C35.81100082397461,0 39.31800079345703,0 39.31800079345703,0 C39.15399932861328,-0.2460000067949295 39.03099822998047,-0.41100001335144043 38.867000579833984,-1.0670000314712524 C38.763999938964844,-1.4769999980926514 38.641998291015625,-2.194999933242798 38.41600036621094,-3.937999963760376 C38.14899826049805,-5.866000175476074 37.98500061035156,-7.138000011444092 35.749000549316406,-7.3429999351501465 C36.46699905395508,-7.547999858856201 38.84700012207031,-8.204000473022461 38.84700012207031,-10.972999572753906 C38.84700012207031,-11.937000274658203 38.47700119018555,-13.02400016784668 37.55400085449219,-13.824000358581543 C36.36399841308594,-14.850000381469727 34.70399856567383,-14.850000381469727 33.0629997253418,-14.829000473022461 C33.0629997253418,-14.829000473022461 27.381000518798828,-14.829000473022461 27.381000518798828,-14.829000473022461 C27.381000518798828,-14.829000473022461 27.381000518798828,0 27.381000518798828,0z"/></g><g opacity="1" transform="matrix(1,0,0,1,0,0)"><path fill="rgb(0,0,0)" fill-opacity="1" d=" M14.489999771118164,-7.302000045776367 C14.489999771118164,-8.984000205993652 14.736000061035156,-10.583000183105469 15.57699966430664,-11.609000205993652 C16.172000885009766,-12.368000030517578 17.114999771118164,-12.859999656677246 18.30500030517578,-12.859999656677246 C19.822999954223633,-12.859999656677246 21.073999404907227,-12.0600004196167 21.68899917602539,-10.234999656677246 C21.996999740600586,-9.333000183105469 22.058000564575195,-8.307000160217285 22.058000564575195,-7.589000225067139 C22.058000564575195,-5.230000019073486 21.545000076293945,-4.080999851226807 21.05299949645996,-3.3429999351501465 C20.45800018310547,-2.4200000762939453 19.576000213623047,-1.968999981880188 18.284000396728516,-1.968999981880188 C16.80699920654297,-1.968999981880188 16.04800033569336,-2.5439999103546143 15.597000122070312,-3.1589999198913574 C14.71500015258789,-4.308000087738037 14.489999771118164,-5.88700008392334 14.489999771118164,-7.302000045776367z M11.166999816894531,-7.198999881744385 C11.166999816894531,-5.84499979019165 11.371999740600586,-3.384000062942505 12.991999626159668,-1.6610000133514404 C14.345999717712402,-0.2460000067949295 16.29400062561035,0.36899998784065247 18.243000030517578,0.36899998784065247 C19.474000930786133,0.36899998784065247 21.87299919128418,0.10300000011920929 23.513999938964844,-1.7430000305175781 C24.724000930786133,-3.0969998836517334 25.381000518798828,-5.394000053405762 25.381000518798828,-7.547999858856201 C25.381000518798828,-9.003999710083008 25.072999954223633,-11.321999549865723 23.493999481201172,-13.126999855041504 C22.038000106811523,-14.767999649047852 19.863000869750977,-15.13700008392334 18.284000396728516,-15.13700008392334 C12.951000213623047,-15.13700008392334 11.166999816894531,-11.13700008392334 11.166999816894531,-7.198999881744385z"/></g><g opacity="1" transform="matrix(1,0,0,1,0,0)"><path fill="rgb(0,0,0)" fill-opacity="1" d=" M1.4149999618530273,0 C1.4149999618530273,0 11.013999938964844,0 11.013999938964844,0 C11.013999938964844,0 11.013999938964844,-2.5230000019073486 11.013999938964844,-2.5230000019073486 C11.013999938964844,-2.5230000019073486 4.656000137329102,-2.5230000019073486 4.656000137329102,-2.5230000019073486 C4.656000137329102,-2.5230000019073486 4.656000137329102,-14.809000015258789 4.656000137329102,-14.809000015258789 C4.656000137329102,-14.809000015258789 1.4149999618530273,-14.809000015258789 1.4149999618530273,-14.809000015258789 C1.4149999618530273,-14.809000015258789 1.4149999618530273,0 1.4149999618530273,0z"/></g></g></g></svg>